<?xml version="1.0" encoding="utf-8"?>
<!-- Generator: Adobe Illustrator 16.0.0, SVG Export Plug-In . SVG Version: 6.00 Build 0)  -->
<!DOCTYPE svg PUBLIC "-//W3C//DTD SVG 1.1//EN" "http://www.w3.org/Graphics/SVG/1.1/DTD/svg11.dtd">
<svg version="1.1" id="artwork" xmlns="http://www.w3.org/2000/svg" xmlns:xlink="http://www.w3.org/1999/xlink" x="0px" y="0px"
	 width="135px" height="40px" viewBox="0 0 135 40" enable-background="new 0 0 135 40" xml:space="preserve">
<g>
	<path fill="#FFFFFF" d="M134,1.053V39H1V1.053H134 M135,0.053H0V40h135V0.053L135,0.053z"/>
</g>
<g id="_Group_">
	<g id="_Group_2">
		<g id="_Group_3">
			<path id="_Path_" fill="#FFFFFF" d="M31.06,20.315c0.022-1.752,0.941-3.371,2.433-4.288c-0.946-1.351-2.473-2.176-4.122-2.228
				c-1.734-0.182-3.415,1.038-4.299,1.038c-0.9,0-2.261-1.02-3.726-0.989c-1.928,0.063-3.681,1.131-4.619,2.817
				C14.73,20.122,16.22,25.204,18.132,28c0.958,1.368,2.076,2.896,3.54,2.842c1.432-0.058,1.967-0.912,3.696-0.912
				c1.713,0,2.215,0.912,3.708,0.877c1.537-0.023,2.506-1.373,3.429-2.755c0.688-0.976,1.217-2.053,1.568-3.194
				C32.249,24.086,31.062,22.298,31.06,20.315z"/>
			<path id="_Path_2" fill="#FFFFFF" d="M28.238,11.961c0.838-1.006,1.251-2.299,1.151-3.605c-1.28,0.135-2.463,0.746-3.313,1.714
				c-0.839,0.955-1.264,2.203-1.182,3.471C26.194,13.555,27.425,12.972,28.238,11.961z"/>
		</g>
	</g>
	<g>
		<path fill="#FFFFFF" d="M49.165,27.377h-4.888l-1.174,3.466h-2.07l4.63-12.824h2.151l4.63,12.824h-2.106L49.165,27.377z
			 M44.784,25.777h3.875l-1.91-5.625h-0.054L44.784,25.777z"/>
		<path fill="#FFFFFF" d="M62.442,26.169c0,2.905-1.555,4.772-3.901,4.772c-1.213,0.063-2.356-0.572-2.942-1.637h-0.044v4.631
			h-1.919V21.494h1.857v1.555h0.036c0.612-1.058,1.756-1.691,2.977-1.652C60.878,21.396,62.442,23.271,62.442,26.169z M60.47,26.169
			c0-1.894-0.979-3.137-2.471-3.137c-1.466,0-2.453,1.271-2.453,3.137c0,1.884,0.986,3.146,2.453,3.146
			C59.492,29.314,60.47,28.079,60.47,26.169z"/>
		<path fill="#FFFFFF" d="M72.732,26.169c0,2.905-1.555,4.772-3.902,4.772c-1.212,0.063-2.354-0.572-2.94-1.637h-0.044v4.631h-1.92
			V21.494h1.857v1.555h0.035c0.613-1.058,1.756-1.691,2.979-1.652C71.168,21.396,72.732,23.271,72.732,26.169z M70.762,26.169
			c0-1.894-0.979-3.137-2.472-3.137c-1.467,0-2.453,1.271-2.453,3.137c0,1.884,0.986,3.146,2.453,3.146
			C69.783,29.314,70.762,28.079,70.762,26.169L70.762,26.169z"/>
		<path fill="#FFFFFF" d="M79.534,27.271c0.141,1.271,1.377,2.106,3.065,2.106c1.616,0,2.78-0.835,2.78-1.981
			c0-0.996-0.702-1.592-2.364-2l-1.66-0.4c-2.356-0.569-3.449-1.67-3.449-3.457c0-2.212,1.928-3.732,4.666-3.732
			c2.71,0,4.566,1.52,4.63,3.732h-1.937c-0.117-1.28-1.175-2.052-2.722-2.052c-1.545,0-2.604,0.782-2.604,1.919
			c0,0.906,0.677,1.439,2.33,1.849l1.412,0.347c2.631,0.623,3.726,1.68,3.726,3.556c0,2.399-1.912,3.901-4.952,3.901
			c-2.844,0-4.764-1.468-4.887-3.787H79.534z"/>
		<path fill="#FFFFFF" d="M91.549,19.282v2.212h1.778v1.52h-1.778v5.154c0,0.801,0.355,1.174,1.139,1.174
			c0.211-0.003,0.422-0.019,0.631-0.044v1.511c-0.352,0.065-0.709,0.097-1.064,0.09c-1.895,0-2.633-0.711-2.633-2.524v-5.358h-1.359
			v-1.521h1.359v-2.212L91.549,19.282L91.549,19.282z"/>
		<path fill="#FFFFFF" d="M94.355,26.169c0-2.942,1.732-4.79,4.436-4.79c2.711,0,4.436,1.848,4.436,4.79
			c0,2.95-1.717,4.79-4.436,4.79S94.355,29.119,94.355,26.169z M101.271,26.169c0-2.019-0.924-3.209-2.479-3.209
			s-2.479,1.2-2.479,3.209c0,2.026,0.924,3.208,2.479,3.208S101.271,28.195,101.271,26.169L101.271,26.169z"/>
		<path fill="#FFFFFF" d="M104.809,21.494h1.83v1.591h0.045c0.254-1.024,1.194-1.729,2.25-1.688c0.221,0,0.44,0.022,0.656,0.07
			v1.795c-0.279-0.086-0.57-0.123-0.863-0.115c-1.066-0.043-1.967,0.787-2.009,1.854c-0.004,0.1-0.002,0.199,0.011,0.297v5.546
			h-1.92V21.494z"/>
		<path fill="#FFFFFF" d="M118.438,28.098c-0.258,1.697-1.912,2.862-4.025,2.862c-2.721,0-4.409-1.821-4.409-4.746
			c0-2.933,1.698-4.834,4.329-4.834c2.585,0,4.213,1.777,4.213,4.611v0.657h-6.604v0.117c-0.119,1.34,0.871,2.521,2.211,2.639
			c0.101,0.01,0.203,0.012,0.305,0.009c0.932,0.088,1.809-0.447,2.156-1.315H118.438z M111.949,25.307h4.676
			c0.068-1.24-0.88-2.301-2.12-2.369c-0.06-0.004-0.114-0.004-0.173-0.004c-1.309-0.007-2.374,1.047-2.383,2.354
			C111.949,25.293,111.949,25.301,111.949,25.307z"/>
	</g>
</g>
<g id="_Group_4">
	<g>
		<path fill="#FFFFFF" d="M44.543,8.368c1.501-0.108,2.806,1.022,2.914,2.523c0.013,0.18,0.008,0.36-0.015,0.538
			c0,1.969-1.064,3.1-2.899,3.1h-2.226V8.368H44.543z M43.274,13.658h1.162c1.068,0.064,1.986-0.75,2.049-1.818
			c0.008-0.133,0.002-0.267-0.017-0.398c0.146-1.063-0.598-2.042-1.661-2.188c-0.123-0.017-0.248-0.022-0.372-0.015h-1.162
			L43.274,13.658L43.274,13.658z"/>
		<path fill="#FFFFFF" d="M48.523,12.202c-0.116-1.211,0.772-2.287,1.983-2.402c1.211-0.116,2.287,0.772,2.403,1.983
			c0.014,0.14,0.014,0.28,0,0.419c0.118,1.211-0.769,2.289-1.979,2.407c-1.211,0.118-2.289-0.769-2.407-1.979
			C48.51,12.487,48.51,12.344,48.523,12.202z M51.965,12.202c0-1.008-0.453-1.597-1.248-1.597c-0.798,0-1.247,0.589-1.247,1.597
			c0,1.016,0.449,1.601,1.247,1.601C51.512,13.803,51.965,13.214,51.965,12.202L51.965,12.202z"/>
		<path fill="#FFFFFF" d="M58.739,14.529h-0.952l-0.961-3.425h-0.073l-0.957,3.425h-0.943l-1.282-4.65h0.931l0.833,3.548h0.068
			l0.956-3.548h0.88l0.956,3.548h0.073l0.829-3.548h0.917L58.739,14.529z"/>
		<path fill="#FFFFFF" d="M61.094,9.879h0.883v0.739h0.069c0.238-0.544,0.795-0.877,1.388-0.829
			c0.833-0.063,1.559,0.562,1.621,1.395c0.009,0.112,0.005,0.224-0.012,0.335v3.01h-0.918v-2.78c0-0.748-0.325-1.119-1.003-1.119
			c-0.588-0.027-1.087,0.428-1.115,1.016c-0.002,0.054,0,0.108,0.005,0.163v2.72h-0.917L61.094,9.879L61.094,9.879z"/>
		<path fill="#FFFFFF" d="M66.505,8.064h0.918v6.465h-0.918V8.064z"/>
		<path fill="#FFFFFF" d="M68.699,12.202c-0.117-1.211,0.771-2.287,1.982-2.402c1.211-0.116,2.286,0.772,2.401,1.983
			c0.015,0.139,0.015,0.279,0,0.419c0.119,1.211-0.769,2.289-1.979,2.407c-1.211,0.118-2.289-0.769-2.406-1.98
			C68.686,12.487,68.686,12.344,68.699,12.202z M72.141,12.202c0-1.008-0.453-1.597-1.248-1.597c-0.797,0-1.246,0.589-1.246,1.597
			c0,1.016,0.449,1.601,1.246,1.601C71.688,13.803,72.141,13.214,72.141,12.202z"/>
		<path fill="#FFFFFF" d="M74.051,13.214c0-0.837,0.623-1.32,1.73-1.388l1.258-0.073v-0.401c0-0.491-0.325-0.769-0.951-0.769
			c-0.513,0-0.867,0.188-0.969,0.517h-0.891c0.096-0.799,0.847-1.311,1.899-1.311c1.166,0,1.823,0.58,1.823,1.563v3.177h-0.883
			v-0.653h-0.073c-0.298,0.477-0.832,0.756-1.396,0.73c-0.771,0.08-1.463-0.48-1.543-1.252
			C74.053,13.308,74.051,13.261,74.051,13.214z M77.039,12.817v-0.389l-1.135,0.073c-0.641,0.042-0.932,0.26-0.932,0.67
			c0,0.418,0.363,0.662,0.861,0.662c0.604,0.061,1.143-0.378,1.202-0.98C77.037,12.841,77.039,12.829,77.039,12.817z"/>
		<path fill="#FFFFFF" d="M79.158,12.202c0-1.469,0.757-2.4,1.931-2.4c0.595-0.027,1.149,0.291,1.427,0.816h0.067V8.064h0.918v6.465
			h-0.879v-0.735h-0.073c-0.296,0.521-0.859,0.833-1.46,0.812C79.907,14.606,79.158,13.675,79.158,12.202z M80.105,12.202
			c0,0.986,0.467,1.58,1.242,1.58s1.254-0.602,1.254-1.576c0-0.969-0.484-1.58-1.254-1.58
			C80.576,10.626,80.105,11.224,80.105,12.202L80.105,12.202z"/>
		<path fill="#FFFFFF" d="M87.299,12.202c-0.117-1.211,0.771-2.287,1.982-2.402c1.213-0.116,2.287,0.772,2.402,1.983
			c0.014,0.14,0.014,0.28,0,0.419c0.119,1.211-0.77,2.289-1.979,2.407c-1.21,0.118-2.289-0.769-2.406-1.979
			C87.285,12.487,87.285,12.344,87.299,12.202z M90.74,12.202c0-1.008-0.452-1.597-1.247-1.597c-0.8,0-1.246,0.589-1.246,1.597
			c0,1.016,0.446,1.601,1.246,1.601C90.288,13.803,90.74,13.214,90.74,12.202z"/>
		<path fill="#FFFFFF" d="M92.916,9.879H93.8v0.739h0.068c0.237-0.544,0.795-0.877,1.388-0.829c0.833-0.063,1.559,0.562,1.621,1.395
			c0.01,0.112,0.004,0.224-0.012,0.335v3.01h-0.918v-2.78c0-0.748-0.324-1.119-1.004-1.119c-0.588-0.027-1.088,0.428-1.115,1.016
			c-0.003,0.054,0,0.108,0.006,0.163v2.72h-0.918V9.879L92.916,9.879z"/>
		<path fill="#FFFFFF" d="M102.051,8.722V9.9h1.006v0.773h-1.006v2.391c0,0.487,0.199,0.7,0.657,0.7
			c0.117,0,0.233-0.007,0.349-0.021v0.765c-0.162,0.029-0.33,0.045-0.498,0.047c-1.021,0-1.428-0.359-1.428-1.256v-2.626h-0.738V9.9
			h0.738V8.722H102.051z"/>
		<path fill="#FFFFFF" d="M104.313,8.064h0.91v2.563h0.071c0.25-0.548,0.815-0.882,1.418-0.833c0.845-0.046,1.567,0.602,1.613,1.446
			c0.004,0.096,0,0.192-0.013,0.287v3.002h-0.92v-2.776c0-0.743-0.345-1.119-0.994-1.119c-0.598-0.049-1.121,0.396-1.17,0.994
			c-0.006,0.062-0.006,0.124,0,0.185v2.716h-0.918V8.064H104.313z"/>
		<path fill="#FFFFFF" d="M113.664,13.274c-0.258,0.877-1.107,1.444-2.016,1.345c-1.166,0.031-2.135-0.89-2.168-2.056
			c-0.002-0.115,0.004-0.23,0.021-0.345c-0.157-1.174,0.668-2.253,1.843-2.41c0.098-0.014,0.2-0.02,0.303-0.019
			c1.291,0,2.072,0.884,2.072,2.344v0.32h-3.283v0.052c-0.057,0.677,0.445,1.271,1.121,1.328c0.041,0.003,0.078,0.004,0.116,0.004
			c0.45,0.054,0.888-0.169,1.106-0.563H113.664z M110.436,11.775h2.35c0.047-0.619-0.417-1.156-1.036-1.202
			c-0.036-0.003-0.071-0.004-0.108-0.003c-0.656-0.008-1.195,0.518-1.205,1.175C110.436,11.755,110.436,11.765,110.436,11.775
			L110.436,11.775z"/>
	</g>
</g>
</svg>
