<?xml version="1.0" encoding="utf-8"?>
<!-- Generator: Adobe Illustrator 16.0.0, SVG Export Plug-In . SVG Version: 6.00 Build 0)  -->
<!DOCTYPE svg PUBLIC "-//W3C//DTD SVG 1.1//EN" "http://www.w3.org/Graphics/SVG/1.1/DTD/svg11.dtd">
<svg version="1.1" id="Layer_1" xmlns="http://www.w3.org/2000/svg" xmlns:xlink="http://www.w3.org/1999/xlink" x="0px" y="0px"
	 width="814px" height="170.912px" viewBox="0 0 814 170.912" enable-background="new 0 0 814 170.912" xml:space="preserve">
<g>
	<path fill="#FFFFFF" d="M70.777,59.211c0,0.285,0.174,0.542,0.518,0.774c10.74,5.369,16.109,14.623,16.109,27.759
		c0,11.08-3.774,19.449-11.31,25.104c-7.541,5.658-17.427,8.482-29.652,8.482H2.916c-1.947,0-2.916-0.971-2.916-2.908V4.289
		c0-1.943,0.969-2.912,2.916-2.912h42.157c27.081,0,40.612,10.967,40.612,32.897c0,11.542-4.793,19.658-14.39,24.337
		C70.951,58.73,70.777,58.925,70.777,59.211z M24.163,23.136v26.396c0,0.684,0.348,1.024,1.031,1.024h19.879
		c5.37,0,9.535-1.256,12.513-3.77c2.97-2.511,4.453-5.936,4.453-10.281c0-4.457-1.483-7.971-4.453-10.543
		c-2.979-2.565-7.143-3.857-12.513-3.857H25.194C24.511,22.104,24.163,22.456,24.163,23.136z M58.783,96.4
		c2.971-2.687,4.458-6.371,4.458-11.055c0-4.687-1.487-8.367-4.458-11.056c-2.979-2.685-7.139-4.028-12.508-4.028H25.194
		c-0.683,0-1.031,0.352-1.031,1.034v28.099c0,0.69,0.348,1.037,1.031,1.037h21.248C51.698,100.432,55.805,99.085,58.783,96.4z"/>
	<path fill="#FFFFFF" d="M169.315,119.117l-21.08-46.621c-0.228-0.572-0.625-0.859-1.198-0.859h-15.591
		c-0.684,0-1.031,0.344-1.031,1.029v45.758c0,1.938-0.97,2.908-2.909,2.908h-18.341c-1.944,0-2.914-0.971-2.914-2.908V4.114
		c0-1.938,0.97-2.912,2.914-2.912h48.159c7.306,0,13.735,1.52,19.283,4.537c5.529,3.032,9.813,7.287,12.852,12.769
		c3.025,5.489,4.545,11.771,4.545,18.855c0,7.769-1.954,14.455-5.832,20.049c-3.895,5.6-9.263,9.541-16.114,11.826
		c-0.346,0.109-0.571,0.314-0.679,0.602c-0.116,0.283-0.059,0.541,0.173,0.773l22.626,47.285c0.333,0.465,0.507,0.986,0.507,1.549
		c0,0.58-0.232,1.029-0.681,1.377c-0.463,0.334-1.099,0.508-1.895,0.508h-19.355C171.262,121.332,170.119,120.591,169.315,119.117z
		 M130.416,23.136V51.93c0,0.685,0.347,1.025,1.031,1.025h22.277c4.799,0,8.711-1.394,11.738-4.198
		C168.488,45.96,170,42.274,170,37.704c0-4.566-1.513-8.312-4.539-11.224c-3.027-2.917-6.939-4.376-11.738-4.376h-22.277
		C130.763,22.104,130.416,22.456,130.416,23.136z"/>
	<path fill="#FFFFFF" d="M211.473,118.423V4.289c0-1.943,0.969-2.912,2.923-2.912h18.338c1.939,0,2.909,0.969,2.909,2.912v114.134
		c0,1.938-0.97,2.908-2.909,2.908h-18.338C212.442,121.332,211.473,120.361,211.473,118.423z"/>
	<path fill="#FFFFFF" d="M275.228,117.479c-6.744-3.486-11.94-8.367-15.587-14.646c-3.663-6.285-5.5-13.545-5.5-21.766V41.478
		c0-8.229,1.837-15.479,5.5-21.772c3.646-6.275,8.843-11.133,15.587-14.567C281.958,1.715,289.789,0,298.704,0
		c8.801,0,16.53,1.633,23.229,4.889c6.673,3.256,11.884,7.881,15.586,13.877c3.722,5.999,5.575,12.942,5.575,20.823
		c0,1.031-0.914,1.658-2.75,1.889l-18.338,1.197h-0.681c-1.606,0-2.402-0.281-2.402-0.856v-1.032c0-6.054-1.854-10.906-5.571-14.567
		c-3.706-3.654-8.6-5.478-14.648-5.478c-6.165,0-11.117,1.824-14.819,5.478c-3.72,3.662-5.574,8.514-5.574,14.567v41.302
		c0,5.94,1.854,10.738,5.574,14.396c3.703,3.662,8.654,5.488,14.819,5.488c6.049,0,10.943-1.826,14.648-5.488
		c3.717-3.654,5.571-8.453,5.571-14.396c0-0.571,0.26-1.053,0.766-1.459c0.523-0.396,1.23-0.534,2.156-0.422l18.325,0.856
		c1.953,0.229,2.925,0.506,2.925,0.855v0.852c0,7.89-1.854,14.854-5.575,20.914c-3.702,6.053-8.914,10.74-15.586,14.055
		c-6.7,3.306-14.428,4.966-23.229,4.966C289.789,122.707,281.958,120.971,275.228,117.479z"/>
	<path fill="#FFFFFF" d="M360.737,118.423V4.289c0-1.943,0.969-2.912,2.923-2.912h18.339c1.938,0,2.907,0.969,2.907,2.912v46.785
		c0,0.459,0.146,0.745,0.435,0.857c0.276,0.113,0.536,0,0.754-0.34l39.076-48.5c0.813-1.143,2.013-1.714,3.604-1.714h20.755
		c0.77,0,1.419,0.144,1.866,0.422c0.465,0.285,0.695,0.721,0.695,1.292c0,0.452-0.273,1.079-0.869,1.882l-37.341,47.642
		c-0.362,0.34-0.362,0.799,0,1.371l39.57,63.913c0.332,0.465,0.505,0.986,0.505,1.549c0,1.264-0.78,1.885-2.4,1.885H430.83
		c-1.477,0-2.619-0.621-3.431-1.885l-29.978-48.668c-0.114-0.342-0.348-0.518-0.706-0.518c-0.334,0-0.609,0.176-0.826,0.518
		l-10.464,13.369c-0.348,0.459-0.522,0.858-0.522,1.197v33.075c0,1.938-0.969,2.908-2.907,2.908H363.66
		C361.706,121.332,360.737,120.361,360.737,118.423z"/>
	<path fill="#FFFFFF" d="M548.383,22.104h-55.172c-0.695,0-1.043,0.352-1.043,1.032v26.222c0,0.684,0.348,1.032,1.043,1.032h35.807
		c1.939,0,2.91,0.969,2.91,2.909v14.91c0,1.945-0.971,2.916-2.91,2.916h-35.807c-0.695,0-1.043,0.342-1.043,1.031v27.418
		c0,0.682,0.348,1.023,1.043,1.023h55.172c1.938,0,2.925,0.979,2.925,2.914v14.911c0,1.938-0.984,2.908-2.925,2.908h-77.462
		c-1.938,0-2.909-0.97-2.909-2.908V4.289c0-1.943,0.973-2.912,2.909-2.912h77.462c1.938,0,2.925,0.969,2.925,2.912V19.2
		C551.308,21.135,550.321,22.104,548.383,22.104z"/>
	<path fill="#FFFFFF" d="M631.17,119.117l-21.088-46.621c-0.218-0.572-0.62-0.859-1.188-0.859h-15.602
		c-0.68,0-1.028,0.344-1.028,1.029v45.758c0,1.938-0.971,2.908-2.908,2.908h-18.352c-1.926,0-2.896-0.971-2.896-2.908V4.114
		c0-1.938,0.97-2.912,2.896-2.912h48.165c7.324,0,13.736,1.52,19.28,4.537c5.542,3.032,9.827,7.287,12.853,12.769
		c3.025,5.489,4.543,11.771,4.543,18.855c0,7.769-1.938,14.455-5.831,20.049c-3.881,5.6-9.25,9.541-16.107,11.826
		c-0.334,0.109-0.563,0.314-0.684,0.602c-0.113,0.283-0.058,0.541,0.177,0.773l22.622,47.285c0.346,0.465,0.506,0.986,0.506,1.549
		c0,0.58-0.219,1.029-0.683,1.377c-0.462,0.334-1.086,0.508-1.881,0.508H634.6C633.109,121.332,631.966,120.591,631.17,119.117z
		 M592.266,23.136V51.93c0,0.685,0.351,1.025,1.028,1.025h22.275c4.803,0,8.711-1.394,11.751-4.198
		c3.023-2.797,4.546-6.483,4.546-11.053c0-4.566-1.521-8.312-4.546-11.224c-3.04-2.917-6.948-4.376-11.751-4.376h-22.275
		C592.614,22.104,592.266,22.456,592.266,23.136z"/>
</g>
<rect x="694.446" y="0.871" fill="#EB4646" width="56" height="56"/>
<rect x="758" y="33.484" fill="#EB4646" width="56" height="56"/>
<rect x="694.446" y="65.837" fill="#EB4646" width="56" height="56"/>
<g>
	<path fill="#FFFFFF" d="M485.148,141.04c1.37,0.752,2.432,1.806,3.184,3.162c0.751,1.356,1.127,2.918,1.127,4.688
		s-0.383,3.317-1.149,4.644c-0.768,1.327-1.851,2.36-3.25,3.096c-1.4,0.736-3.016,1.105-4.842,1.105h-7.739
		c-0.148,0-0.222,0.074-0.222,0.221v12.295c0,0.205-0.059,0.368-0.177,0.486c-0.118,0.117-0.28,0.176-0.485,0.176h-2.919
		c-0.208,0-0.37-0.059-0.488-0.176c-0.117-0.118-0.176-0.281-0.176-0.486v-29.674c0-0.205,0.059-0.368,0.176-0.486
		c0.118-0.117,0.28-0.177,0.488-0.177h11.718C482.192,139.913,483.777,140.29,485.148,141.04z M483.733,152.826
		c0.985-0.974,1.481-2.256,1.481-3.847c0-1.622-0.496-2.926-1.481-3.915c-0.988-0.988-2.293-1.48-3.914-1.48h-7.341
		c-0.148,0-0.222,0.072-0.222,0.221v10.259c0,0.148,0.073,0.222,0.222,0.222h7.341C481.44,154.285,482.745,153.799,483.733,152.826z
		"/>
	<path fill="#FFFFFF" d="M513.78,170.426l-6.103-13.09c-0.059-0.117-0.148-0.176-0.266-0.176h-6.234
		c-0.147,0-0.222,0.074-0.222,0.222v12.868c0,0.205-0.06,0.368-0.177,0.486c-0.117,0.117-0.28,0.176-0.487,0.176h-2.917
		c-0.207,0-0.369-0.059-0.487-0.176c-0.118-0.118-0.178-0.281-0.178-0.486v-29.674c0-0.205,0.06-0.368,0.178-0.486
		c0.118-0.117,0.28-0.177,0.487-0.177h11.673c1.771,0,3.325,0.369,4.667,1.105c1.34,0.736,2.379,1.769,3.116,3.096
		c0.738,1.326,1.106,2.859,1.106,4.599c0,2.034-0.546,3.767-1.637,5.197c-1.09,1.43-2.563,2.395-4.422,2.896
		c-0.119,0.059-0.162,0.148-0.132,0.265l6.278,13.047l0.09,0.354c0,0.295-0.193,0.441-0.576,0.441h-3.007
		C514.179,170.912,513.928,170.751,513.78,170.426z M500.956,143.805v9.818c0,0.146,0.074,0.219,0.222,0.219h7.341
		c1.531,0,2.778-0.471,3.735-1.413c0.958-0.944,1.438-2.168,1.438-3.671c0-1.563-0.473-2.815-1.415-3.759
		c-0.944-0.943-2.196-1.415-3.759-1.415h-7.341C501.03,143.584,500.956,143.656,500.956,143.805z"/>
	<path fill="#FFFFFF" d="M546.416,143.45c-0.118,0.118-0.281,0.178-0.486,0.178h-15.434c-0.147,0-0.221,0.074-0.221,0.221v9.419
		c0,0.147,0.073,0.222,0.221,0.222h10.525c0.205,0,0.367,0.06,0.486,0.177c0.116,0.118,0.176,0.28,0.176,0.486v2.344
		c0,0.207-0.06,0.368-0.176,0.488c-0.119,0.116-0.281,0.176-0.486,0.176h-10.525c-0.147,0-0.221,0.074-0.221,0.222v9.639
		c0,0.148,0.073,0.222,0.221,0.222h15.434c0.205,0,0.368,0.06,0.486,0.176c0.117,0.119,0.177,0.281,0.177,0.488v2.344
		c0,0.205-0.06,0.368-0.177,0.486c-0.118,0.117-0.281,0.176-0.486,0.176h-19.236c-0.208,0-0.369-0.059-0.487-0.176
		c-0.118-0.118-0.176-0.281-0.176-0.486v-29.629c0-0.206,0.058-0.369,0.176-0.486c0.118-0.118,0.279-0.178,0.487-0.178h19.236
		c0.205,0,0.368,0.06,0.486,0.178c0.117,0.117,0.177,0.28,0.177,0.486v2.344C546.593,143.171,546.533,143.334,546.416,143.45z"/>
	<path fill="#FFFFFF" d="M554.907,170.736c-0.119-0.118-0.178-0.281-0.178-0.486v-29.629c0-0.206,0.059-0.369,0.178-0.486
		c0.117-0.118,0.279-0.178,0.485-0.178h2.964c0.354,0,0.618,0.148,0.797,0.442l7.428,11.852c0.089,0.178,0.177,0.178,0.266,0
		l7.474-11.852c0.177-0.294,0.441-0.442,0.796-0.442h2.963c0.206,0,0.368,0.06,0.486,0.178c0.117,0.117,0.177,0.28,0.177,0.486
		v29.629c0,0.205-0.06,0.368-0.177,0.486c-0.118,0.117-0.28,0.176-0.486,0.176h-2.918c-0.207,0-0.37-0.059-0.487-0.176
		c-0.118-0.118-0.177-0.281-0.177-0.486v-22.466c0-0.116-0.03-0.184-0.088-0.199c-0.06-0.014-0.119,0.023-0.178,0.111l-6.014,9.817
		c-0.177,0.295-0.442,0.441-0.797,0.441h-1.414c-0.354,0-0.621-0.146-0.797-0.441l-5.97-9.817c-0.059-0.088-0.119-0.125-0.178-0.111
		c-0.058,0.016-0.088,0.083-0.088,0.199v22.466c0,0.205-0.06,0.368-0.177,0.486c-0.117,0.117-0.28,0.176-0.485,0.176h-2.92
		C555.187,170.912,555.024,170.854,554.907,170.736z"/>
	<path fill="#FFFFFF" d="M588.382,170.736c-0.118-0.118-0.176-0.281-0.176-0.486v-29.629c0-0.206,0.058-0.369,0.176-0.486
		c0.118-0.118,0.28-0.178,0.487-0.178h2.919c0.205,0,0.368,0.06,0.484,0.178c0.119,0.117,0.178,0.28,0.178,0.486v29.629
		c0,0.205-0.059,0.368-0.178,0.486c-0.116,0.117-0.279,0.176-0.484,0.176h-2.919C588.662,170.912,588.5,170.854,588.382,170.736z"/>
	<path fill="#FFFFFF" d="M606.8,170.006c-1.637-0.84-2.911-2.034-3.825-3.581c-0.914-1.549-1.37-3.324-1.37-5.33v-20.474
		c0-0.206,0.058-0.369,0.177-0.486c0.117-0.118,0.279-0.178,0.485-0.178h2.919c0.207,0,0.369,0.06,0.487,0.178
		c0.116,0.117,0.176,0.28,0.176,0.486v20.563c0,1.916,0.611,3.465,1.836,4.642c1.224,1.181,2.823,1.769,4.798,1.769
		s3.567-0.588,4.776-1.769c1.208-1.177,1.813-2.726,1.813-4.642v-20.563c0-0.206,0.058-0.369,0.177-0.486
		c0.116-0.118,0.279-0.178,0.486-0.178h2.919c0.205,0,0.368,0.06,0.485,0.178c0.117,0.117,0.178,0.28,0.178,0.486v20.474
		c0,2.006-0.45,3.781-1.349,5.33c-0.9,1.547-2.167,2.741-3.804,3.581c-1.637,0.841-3.53,1.261-5.683,1.261
		S608.436,170.847,606.8,170.006z"/>
	<path fill="#FFFFFF" d="M632.693,170.736c-0.119-0.118-0.178-0.281-0.178-0.486v-29.629c0-0.206,0.059-0.369,0.178-0.486
		c0.115-0.118,0.278-0.178,0.485-0.178h2.963c0.354,0,0.619,0.148,0.795,0.442l7.43,11.852c0.09,0.178,0.177,0.178,0.266,0
		l7.474-11.852c0.177-0.294,0.442-0.442,0.795-0.442h2.963c0.208,0,0.369,0.06,0.488,0.178c0.117,0.117,0.176,0.28,0.176,0.486
		v29.629c0,0.205-0.059,0.368-0.176,0.486c-0.119,0.117-0.28,0.176-0.488,0.176h-2.918c-0.206,0-0.368-0.059-0.486-0.176
		c-0.118-0.118-0.177-0.281-0.177-0.486v-22.466c0-0.116-0.03-0.184-0.089-0.199c-0.06-0.014-0.117,0.023-0.176,0.111l-6.015,9.817
		c-0.176,0.295-0.442,0.441-0.795,0.441h-1.416c-0.354,0-0.619-0.146-0.796-0.441l-5.97-9.817c-0.06-0.088-0.119-0.125-0.177-0.111
		c-0.06,0.016-0.089,0.083-0.089,0.199v22.466c0,0.205-0.06,0.368-0.178,0.486c-0.118,0.117-0.28,0.176-0.485,0.176h-2.919
		C632.972,170.912,632.809,170.854,632.693,170.736z"/>
</g>
</svg>
